<mxfile host="app.diagrams.net" agent="Mozilla/5.0 (Windows NT 10.0; Win64; x64) AppleWebKit/537.36 (KHTML, like Gecko) Chrome/131.0.0.0 Safari/537.36" version="26.0.5">
  <diagram name="Page-1" id="zFvB7QGLXHwIO1FAH0Tm">
    <mxGraphModel dx="1674" dy="738" grid="1" gridSize="10" guides="1" tooltips="1" connect="1" arrows="1" fold="1" page="1" pageScale="1" pageWidth="827" pageHeight="1169" math="0" shadow="0">
      <root>
        <mxCell id="0" />
        <mxCell id="1" parent="0" />
        <mxCell id="1pKdaknDMt2EVlkzHGD7-6" style="edgeStyle=orthogonalEdgeStyle;rounded=0;orthogonalLoop=1;jettySize=auto;html=1;exitX=0.5;exitY=1;exitDx=0;exitDy=0;entryX=0.5;entryY=0;entryDx=0;entryDy=0;" edge="1" parent="1" source="1pKdaknDMt2EVlkzHGD7-1">
          <mxGeometry relative="1" as="geometry">
            <mxPoint x="414" y="220" as="targetPoint" />
          </mxGeometry>
        </mxCell>
        <mxCell id="1pKdaknDMt2EVlkzHGD7-1" value="File Select" style="rounded=0;whiteSpace=wrap;html=1;" vertex="1" parent="1">
          <mxGeometry x="354" y="120" width="120" height="60" as="geometry" />
        </mxCell>
        <mxCell id="1pKdaknDMt2EVlkzHGD7-4" style="edgeStyle=orthogonalEdgeStyle;rounded=0;orthogonalLoop=1;jettySize=auto;html=1;exitX=0.5;exitY=1;exitDx=0;exitDy=0;" edge="1" parent="1" source="1pKdaknDMt2EVlkzHGD7-3" target="1pKdaknDMt2EVlkzHGD7-1">
          <mxGeometry relative="1" as="geometry" />
        </mxCell>
        <mxCell id="1pKdaknDMt2EVlkzHGD7-3" value="Start" style="ellipse;whiteSpace=wrap;html=1;" vertex="1" parent="1">
          <mxGeometry x="366" y="20" width="96" height="60" as="geometry" />
        </mxCell>
        <mxCell id="1pKdaknDMt2EVlkzHGD7-10" style="edgeStyle=orthogonalEdgeStyle;rounded=0;orthogonalLoop=1;jettySize=auto;html=1;exitX=1;exitY=0.5;exitDx=0;exitDy=0;entryX=0.5;entryY=0;entryDx=0;entryDy=0;" edge="1" parent="1" source="1pKdaknDMt2EVlkzHGD7-7" target="1pKdaknDMt2EVlkzHGD7-9">
          <mxGeometry relative="1" as="geometry" />
        </mxCell>
        <mxCell id="1pKdaknDMt2EVlkzHGD7-13" value="1 tool selected" style="edgeLabel;html=1;align=center;verticalAlign=middle;resizable=0;points=[];" vertex="1" connectable="0" parent="1pKdaknDMt2EVlkzHGD7-10">
          <mxGeometry x="0.269" y="2" relative="1" as="geometry">
            <mxPoint x="-2" y="-7" as="offset" />
          </mxGeometry>
        </mxCell>
        <mxCell id="1pKdaknDMt2EVlkzHGD7-11" style="edgeStyle=orthogonalEdgeStyle;rounded=0;orthogonalLoop=1;jettySize=auto;html=1;exitX=0;exitY=0.5;exitDx=0;exitDy=0;entryX=0.5;entryY=0;entryDx=0;entryDy=0;" edge="1" parent="1" source="1pKdaknDMt2EVlkzHGD7-7" target="1pKdaknDMt2EVlkzHGD7-8">
          <mxGeometry relative="1" as="geometry" />
        </mxCell>
        <mxCell id="1pKdaknDMt2EVlkzHGD7-12" value="2+ tools selected" style="edgeLabel;html=1;align=center;verticalAlign=middle;resizable=0;points=[];" vertex="1" connectable="0" parent="1pKdaknDMt2EVlkzHGD7-11">
          <mxGeometry x="-0.3931" y="2" relative="1" as="geometry">
            <mxPoint x="-17" y="28" as="offset" />
          </mxGeometry>
        </mxCell>
        <mxCell id="1pKdaknDMt2EVlkzHGD7-7" value="Pen Test Tool Select" style="rhombus;whiteSpace=wrap;html=1;" vertex="1" parent="1">
          <mxGeometry x="361" y="220" width="106" height="100" as="geometry" />
        </mxCell>
        <mxCell id="1pKdaknDMt2EVlkzHGD7-17" style="edgeStyle=orthogonalEdgeStyle;rounded=0;orthogonalLoop=1;jettySize=auto;html=1;exitX=0.5;exitY=1;exitDx=0;exitDy=0;entryX=0;entryY=0.5;entryDx=0;entryDy=0;" edge="1" parent="1" source="1pKdaknDMt2EVlkzHGD7-8" target="1pKdaknDMt2EVlkzHGD7-16">
          <mxGeometry relative="1" as="geometry" />
        </mxCell>
        <mxCell id="1pKdaknDMt2EVlkzHGD7-8" value="Run Multiple Tools" style="rounded=0;whiteSpace=wrap;html=1;" vertex="1" parent="1">
          <mxGeometry x="246" y="360" width="120" height="60" as="geometry" />
        </mxCell>
        <mxCell id="1pKdaknDMt2EVlkzHGD7-18" style="edgeStyle=orthogonalEdgeStyle;rounded=0;orthogonalLoop=1;jettySize=auto;html=1;exitX=0.5;exitY=1;exitDx=0;exitDy=0;entryX=1;entryY=0.5;entryDx=0;entryDy=0;" edge="1" parent="1" source="1pKdaknDMt2EVlkzHGD7-9" target="1pKdaknDMt2EVlkzHGD7-16">
          <mxGeometry relative="1" as="geometry" />
        </mxCell>
        <mxCell id="1pKdaknDMt2EVlkzHGD7-9" value="Run Single Tool" style="rounded=0;whiteSpace=wrap;html=1;" vertex="1" parent="1">
          <mxGeometry x="462" y="360" width="120" height="60" as="geometry" />
        </mxCell>
        <mxCell id="1pKdaknDMt2EVlkzHGD7-14" style="edgeStyle=orthogonalEdgeStyle;rounded=0;orthogonalLoop=1;jettySize=auto;html=1;exitX=0;exitY=0;exitDx=0;exitDy=0;entryX=0.5;entryY=0;entryDx=0;entryDy=0;" edge="1" parent="1" source="1pKdaknDMt2EVlkzHGD7-7" target="1pKdaknDMt2EVlkzHGD7-7">
          <mxGeometry relative="1" as="geometry">
            <mxPoint x="290" y="220" as="sourcePoint" />
            <mxPoint x="316.5" y="195" as="targetPoint" />
            <Array as="points">
              <mxPoint x="340" y="245" />
              <mxPoint x="340" y="210" />
              <mxPoint x="414" y="210" />
            </Array>
          </mxGeometry>
        </mxCell>
        <mxCell id="1pKdaknDMt2EVlkzHGD7-15" value="0 Tools Selected" style="edgeLabel;html=1;align=center;verticalAlign=middle;resizable=0;points=[];" vertex="1" connectable="0" parent="1pKdaknDMt2EVlkzHGD7-14">
          <mxGeometry x="-0.1772" y="-1" relative="1" as="geometry">
            <mxPoint as="offset" />
          </mxGeometry>
        </mxCell>
        <mxCell id="1pKdaknDMt2EVlkzHGD7-20" style="edgeStyle=orthogonalEdgeStyle;rounded=0;orthogonalLoop=1;jettySize=auto;html=1;exitX=0.5;exitY=1;exitDx=0;exitDy=0;entryX=0.5;entryY=0;entryDx=0;entryDy=0;" edge="1" parent="1" source="1pKdaknDMt2EVlkzHGD7-16" target="1pKdaknDMt2EVlkzHGD7-19">
          <mxGeometry relative="1" as="geometry" />
        </mxCell>
        <mxCell id="1pKdaknDMt2EVlkzHGD7-16" value="Write report" style="rounded=0;whiteSpace=wrap;html=1;" vertex="1" parent="1">
          <mxGeometry x="354" y="470" width="120" height="60" as="geometry" />
        </mxCell>
        <mxCell id="1pKdaknDMt2EVlkzHGD7-23" style="edgeStyle=orthogonalEdgeStyle;rounded=0;orthogonalLoop=1;jettySize=auto;html=1;exitX=0.5;exitY=1;exitDx=0;exitDy=0;entryX=0.5;entryY=0;entryDx=0;entryDy=0;" edge="1" parent="1" source="1pKdaknDMt2EVlkzHGD7-19" target="1pKdaknDMt2EVlkzHGD7-22">
          <mxGeometry relative="1" as="geometry" />
        </mxCell>
        <mxCell id="1pKdaknDMt2EVlkzHGD7-19" value="Save Report on Computer" style="rounded=0;whiteSpace=wrap;html=1;" vertex="1" parent="1">
          <mxGeometry x="354" y="585" width="120" height="60" as="geometry" />
        </mxCell>
        <mxCell id="1pKdaknDMt2EVlkzHGD7-26" style="edgeStyle=orthogonalEdgeStyle;rounded=0;orthogonalLoop=1;jettySize=auto;html=1;exitX=1;exitY=0.5;exitDx=0;exitDy=0;entryX=0.5;entryY=0;entryDx=0;entryDy=0;" edge="1" parent="1" source="1pKdaknDMt2EVlkzHGD7-22" target="1pKdaknDMt2EVlkzHGD7-25">
          <mxGeometry relative="1" as="geometry" />
        </mxCell>
        <mxCell id="1pKdaknDMt2EVlkzHGD7-27" value="yes" style="edgeLabel;html=1;align=center;verticalAlign=middle;resizable=0;points=[];" vertex="1" connectable="0" parent="1pKdaknDMt2EVlkzHGD7-26">
          <mxGeometry x="-0.075" y="1" relative="1" as="geometry">
            <mxPoint x="-28" y="-9" as="offset" />
          </mxGeometry>
        </mxCell>
        <mxCell id="1pKdaknDMt2EVlkzHGD7-30" style="edgeStyle=orthogonalEdgeStyle;rounded=0;orthogonalLoop=1;jettySize=auto;html=1;exitX=0.5;exitY=1;exitDx=0;exitDy=0;" edge="1" parent="1" source="1pKdaknDMt2EVlkzHGD7-22" target="1pKdaknDMt2EVlkzHGD7-28">
          <mxGeometry relative="1" as="geometry" />
        </mxCell>
        <mxCell id="1pKdaknDMt2EVlkzHGD7-31" value="No" style="edgeLabel;html=1;align=center;verticalAlign=middle;resizable=0;points=[];" vertex="1" connectable="0" parent="1pKdaknDMt2EVlkzHGD7-30">
          <mxGeometry x="-0.2182" y="3" relative="1" as="geometry">
            <mxPoint x="-17" as="offset" />
          </mxGeometry>
        </mxCell>
        <mxCell id="1pKdaknDMt2EVlkzHGD7-22" value="View report?" style="rhombus;whiteSpace=wrap;html=1;" vertex="1" parent="1">
          <mxGeometry x="374" y="700" width="80" height="80" as="geometry" />
        </mxCell>
        <mxCell id="1pKdaknDMt2EVlkzHGD7-29" style="edgeStyle=orthogonalEdgeStyle;rounded=0;orthogonalLoop=1;jettySize=auto;html=1;exitX=0.5;exitY=1;exitDx=0;exitDy=0;entryX=1;entryY=0.5;entryDx=0;entryDy=0;" edge="1" parent="1" source="1pKdaknDMt2EVlkzHGD7-25" target="1pKdaknDMt2EVlkzHGD7-28">
          <mxGeometry relative="1" as="geometry" />
        </mxCell>
        <mxCell id="1pKdaknDMt2EVlkzHGD7-25" value="Go to file location" style="rounded=0;whiteSpace=wrap;html=1;" vertex="1" parent="1">
          <mxGeometry x="474" y="820" width="120" height="60" as="geometry" />
        </mxCell>
        <mxCell id="1pKdaknDMt2EVlkzHGD7-28" value="end" style="ellipse;whiteSpace=wrap;html=1;" vertex="1" parent="1">
          <mxGeometry x="354" y="890" width="120" height="80" as="geometry" />
        </mxCell>
      </root>
    </mxGraphModel>
  </diagram>
</mxfile>
